<!-- Generated by IcoMoon.io -->
<svg version="1.1" xmlns="http://www.w3.org/2000/svg" width="32" height="32" viewBox="0 0 32 32">
<title>mode-ctb</title>
<path d="M16 3.52c6.88 0 12.48 5.6 12.48 12.48s-5.6 12.48-12.48 12.48c-6.88 0-12.48-5.6-12.48-12.48s5.6-12.48 12.48-12.48M16 0.96c-2.016 0-4 0.384-5.856 1.184-1.792 0.768-3.392 1.856-4.768 3.232-1.408 1.376-2.464 2.976-3.232 4.768-0.8 1.856-1.184 3.84-1.184 5.856s0.384 4 1.184 5.856c0.768 1.792 1.856 3.392 3.232 4.768 1.376 1.408 2.976 2.464 4.768 3.232 1.856 0.8 3.84 1.184 5.856 1.184s4-0.384 5.856-1.184c1.792-0.768 3.392-1.856 4.768-3.232 1.408-1.376 2.464-2.976 3.232-4.768 0.8-1.856 1.184-3.84 1.184-5.856s-0.384-4-1.184-5.856c-0.768-1.792-1.856-3.392-3.232-4.768-1.376-1.408-2.976-2.464-4.768-3.232-1.856-0.8-3.84-1.184-5.856-1.184v0zM22.144 16c0-1.312-1.056-2.4-2.4-2.4-1.312 0-2.4 1.088-2.4 2.4s1.088 2.4 2.4 2.4c1.344 0 2.4-1.088 2.4-2.4zM16.576 11.136c0-1.344-1.088-2.4-2.4-2.4s-2.4 1.056-2.4 2.4 1.056 2.4 2.4 2.4 2.4-1.088 2.4-2.4zM16.576 20.864c0-1.312-1.088-2.4-2.4-2.4s-2.4 1.088-2.4 2.4 1.056 2.4 2.4 2.4 2.4-1.056 2.4-2.4z"></path>
</svg>
