<!-- Generated by IcoMoon.io -->
<svg version="1.1" xmlns="http://www.w3.org/2000/svg" width="32" height="32" viewBox="0 0 32 32">
<title>mode-mania</title>
<path d="M16 25.664c-0.896 0-1.6-0.704-1.6-1.6v-16.128c0-0.896 0.704-1.6 1.6-1.6s1.6 0.704 1.6 1.6v16.128c0 0.896-0.704 1.6-1.6 1.6zM12.48 19.52v-7.040c0-0.896-0.704-1.6-1.6-1.6s-1.6 0.704-1.6 1.6v7.040c0 0.896 0.704 1.6 1.6 1.6s1.6-0.704 1.6-1.6zM22.72 19.52v-7.040c0-0.896-0.704-1.6-1.6-1.6s-1.6 0.704-1.6 1.6v7.040c0 0.896 0.704 1.6 1.6 1.6s1.6-0.704 1.6-1.6zM16 3.52c-6.88 0-12.48 5.6-12.48 12.48s5.6 12.48 12.48 12.48c6.88 0 12.48-5.6 12.48-12.48s-5.6-12.48-12.48-12.48M16 0.96c2.016 0 4 0.384 5.856 1.184 1.792 0.768 3.392 1.856 4.768 3.232 1.408 1.376 2.464 2.976 3.232 4.768 0.8 1.856 1.184 3.84 1.184 5.856s-0.384 4-1.184 5.856c-0.768 1.792-1.856 3.392-3.232 4.768-1.376 1.408-2.976 2.464-4.768 3.232-1.856 0.8-3.84 1.184-5.856 1.184s-4-0.384-5.856-1.184c-1.792-0.768-3.392-1.856-4.768-3.232-1.408-1.376-2.464-2.976-3.232-4.768-0.8-1.856-1.184-3.84-1.184-5.856s0.384-4 1.184-5.856c0.768-1.792 1.856-3.392 3.232-4.768 1.376-1.408 2.976-2.464 4.768-3.232 1.856-0.8 3.84-1.184 5.856-1.184v0z"></path>
</svg>
